<svg xmlns="http://www.w3.org/2000/svg" viewBox="0 0 111.52 68.73">
    <defs>
        <style>
            .cls-1 {
                fill: white;
            }
        </style>
    </defs>
    <g id="Calque_2" data-name="Calque 2">
        <g id="Calque_1-2" data-name="Calque 1">
            <path class="cls-1"
                d="M34.37,4a14.17,14.17,0,0,0,.25,4.53c5.76.31,8.48.41,8.15.32a13.29,13.29,0,0,1,0,3.76,10.43,10.43,0,0,0,.31,4.08q6.51,1.19,25.11.31a22.86,22.86,0,0,0,.14-4.21,18.25,18.25,0,0,1,.21-3.94,17.4,17.4,0,0,1,3.83-.28c2.27,0,3.6,0,4,0a10.65,10.65,0,0,0,.35-4.25A11.77,11.77,0,0,1,77.05.05c1,.05,3.88,0,8.68,0A51.6,51.6,0,0,1,94,.41a16.5,16.5,0,0,1,0,8.15A38,38,0,0,1,86.26,9q-7.07-.18-8.89-.07A11.89,11.89,0,0,0,77,12.75c0,2.43,0,3.86,0,4.28a10.87,10.87,0,0,0,4.22.32,16.85,16.85,0,0,1,3.94,0,11.11,11.11,0,0,1,.35,3.73c0,2.34-.06,3.71,0,4.11a11.8,11.8,0,0,0,4.26.35,11.48,11.48,0,0,1,4.25.32,10.75,10.75,0,0,1,.35,3.69c0,2.37-.06,3.75,0,4.15a11.85,11.85,0,0,0,3.86.35c2.44,0,3.87-.06,4.29,0a119.14,119.14,0,0,1,.39,12.52q-.11,10.69-.07,12.94c.4.35,1.64.47,3.73.35a11,11,0,0,1,4.43.28,15.68,15.68,0,0,1,0,8.16,76.23,76.23,0,0,1-17,0q-.07-2.19,0-12.59a118.65,118.65,0,0,0-.39-12.2c-1-.42-3.61-.53-7.81-.31a45.26,45.26,0,0,0-.35,8.47,43.63,43.63,0,0,1-.31,8.47H77.05v8.16a76.51,76.51,0,0,1-17,0,37.28,37.28,0,0,1,0-8.16,52.31,52.31,0,0,1,8-.35c4.62.07,7.39.08,8.33,0a9.75,9.75,0,0,0,.39-3.69c-.07-2.29-.08-3.68,0-4.15q-21.06-.84-42.11,0a22,22,0,0,0-.11,3.63,24.14,24.14,0,0,1-.21,3.9,49.38,49.38,0,0,0,8.65.31,50.13,50.13,0,0,1,8.65.32v8.16a79.34,79.34,0,0,1-17.3,0V60.45a12.29,12.29,0,0,0-3.87-.38q-3.64.1-4.29,0A49.1,49.1,0,0,1,25.79,52q.08-7.06,0-8.51a6.89,6.89,0,0,0-3.48-.38,10.72,10.72,0,0,1-4.05-.29q-.91,3.81-.7,12.55a88.23,88.23,0,0,1-.28,12.91,79.41,79.41,0,0,1-17.3,0V60.1c-.3.09,2.42,0,8.16-.32a101.6,101.6,0,0,0,.35-12.72,97.55,97.55,0,0,1,.32-12.73c-.31.09,2.41,0,8.15-.32a12.25,12.25,0,0,0,.36-3.9c-.05-2.41-.06-3.83,0-4.25-.35.09,2.48,0,8.51-.35,0-.4,0-1.82,0-4.26a12.32,12.32,0,0,1,.35-3.9q.78-.08,7.84,0a15.9,15.9,0,0,0,0-8.16,45.66,45.66,0,0,0-8.33-.31,45.46,45.46,0,0,1-8.33-.32c.05-.47,0-1.9,0-4.29A11.16,11.16,0,0,1,17.67.41a37.93,37.93,0,0,1,8-.39Q33,.12,34,.05A9,9,0,0,1,34.37,4Zm4.36,30a11,11,0,0,0,3.73-.35,23.74,23.74,0,0,0,0-7.53,11.25,11.25,0,0,0-3.73-.35c-2.34.05-3.71.06-4.11,0a56.25,56.25,0,0,0,0,8.15C35,34,36.39,34,38.73,34.05Zm30.16-8.19a16.5,16.5,0,0,0,0,8.15h7.84c0-.42,0-1.85,0-4.28a10.9,10.9,0,0,0-.39-3.87Z" />
        </g>
    </g>
</svg>